<?xml version="1.0" standalone="no"?><!-- Generator: Gravit.io --><svg xmlns="http://www.w3.org/2000/svg" xmlns:xlink="http://www.w3.org/1999/xlink" style="isolation:isolate" viewBox="0 0 100 100" width="100" height="100"><defs><clipPath id="_clipPath_xJ91Kcb9C5ipJNEh1yerJXMSmwDJ1OF9"><rect width="100" height="100"/></clipPath></defs><g clip-path="url(#_clipPath_xJ91Kcb9C5ipJNEh1yerJXMSmwDJ1OF9)"><path d=" M 8.075 71 C 17.164 60.843 16.494 53.744 20.075 43 C 24.06 23.076 23.908 11 32.075 11 C 38.387 11 38.211 16.407 39.075 19 C 41.941 27.599 42.075 36.699 42.075 45.744 C 42.075 46.744 49.742 51.333 53.075 43 C 54.075 37.667 52.742 27 55.075 19 C 59.408 13.667 71.075 11.337 71.075 19 C 72.742 38.667 71.075 51.744 71.075 51.744 C 75.742 60 84.194 63 87.075 63 C 90.075 73.333 81.758 73.658 81.075 74 C 81.075 74 66.075 75 50.075 61 C 50.075 62 46.075 71 46.075 71 C 46.075 71 37.075 56 37.075 56 C 37.075 67.433 18.044 74 10.075 74 C 7.404 74 8.075 72.411 8.075 71 Z " fill="rgb(19,51,90)" vector-effect="non-scaling-stroke" stroke-width="1" stroke="rgb(0,0,0)" stroke-linejoin="miter" stroke-linecap="square" stroke-miterlimit="3"/><path d=" M 76.608 46.569 C 80.14 36.035 76.919 29.006 66.419 20.958 C 59.393 17.912 55.541 14.166 45.396 19.939 C 40.531 27.298 43.818 31.897 49.249 40.775 C 49.641 42.233 31.962 40.258 29.954 43.296 C 23.146 49.491 20.388 53.662 23.341 65.605 C 29.575 75.32 49.837 89.114 55.492 80.56 C 59.647 74.275 43.636 71.829 44.984 59.534 C 47.876 51.056 53.949 51.968 55.91 53.264 C 58.393 54.905 57.95 39.922 58.912 38.466 C 61.894 33.955 66.611 35.222 69.219 39.286 C 71.73 43.2 67.826 46.756 72.907 50.116 C 73.222 50.324 73.667 51.018 73.851 50.74 C 75.322 48.515 76.241 47.125 76.608 46.569 Z " fill="rgb(19,51,90)" vector-effect="non-scaling-stroke" stroke-width="1" stroke="rgb(255,255,255)" stroke-linejoin="miter" stroke-linecap="square" stroke-miterlimit="3"/></g></svg>